<svg width="184" height="29" viewBox="0 0 184 29" fill="none" xmlns="http://www.w3.org/2000/svg">
<path fill-rule="evenodd" clip-rule="evenodd" d="M25.6725 3.05262H3.08771V25.3808H25.6725V3.05262ZM3.08771 0H0V3.05262V25.3808V28.4334H3.08771H25.6725H28.7602V25.3808V3.05262V0H25.6725H3.08771ZM20.9013 8.05166L20.3878 10.106C20.1744 10.9661 19.3887 11.5678 18.4886 11.5678H10.3502L10.8637 9.51038C11.0772 8.65338 11.8597 8.05166 12.7599 8.05166H20.9013ZM9.64595 14.5727C9.85874 13.7043 10.639 13.0915 11.5364 13.0915H17.2263L16.7143 15.1732C16.5015 16.0447 15.7182 16.6575 14.8208 16.6575H12.8101L12.1378 19.4568C11.9219 20.3283 11.1386 20.9442 10.2381 20.9442H8.09782L9.64595 14.5727Z" fill="white"/>
<path d="M41.429 17.5766V24.1852H37.2573V5.55595H50.2838V9.41778H41.429V13.8779H49.584V17.5766H41.429Z" fill="white"/>
<path d="M58.443 9.9617C59.5016 9.9617 60.4795 10.1521 61.3766 10.5328C62.2917 10.9136 63.0812 11.4303 63.7451 12.083C64.409 12.7357 64.9293 13.5062 65.3061 14.3946C65.6829 15.283 65.8713 16.2349 65.8713 17.2502C65.8713 18.2655 65.6829 19.2174 65.3061 20.1058C64.9293 20.9761 64.409 21.7376 63.7451 22.3903C63.0812 23.043 62.2917 23.5597 61.3766 23.9404C60.4795 24.3212 59.5016 24.5115 58.443 24.5115C57.3844 24.5115 56.3975 24.3302 55.4824 23.9676C54.5853 23.5869 53.8048 23.0702 53.1409 22.4175C52.477 21.7648 51.9567 20.9942 51.5799 20.1058C51.221 19.2174 51.0416 18.2655 51.0416 17.2502C51.0416 16.2349 51.23 15.283 51.6068 14.3946C51.9836 13.5062 52.495 12.7357 53.1409 12.083C53.8048 11.4303 54.5853 10.9136 55.4824 10.5328C56.3975 10.1521 57.3844 9.9617 58.443 9.9617ZM58.443 13.3884C57.9227 13.3884 57.4292 13.4881 56.9627 13.6876C56.5141 13.8689 56.1194 14.1318 55.7785 14.4762C55.4555 14.8207 55.1953 15.2287 54.998 15.7001C54.8186 16.1714 54.7288 16.6882 54.7288 17.2502C54.7288 17.8123 54.8186 18.329 54.998 18.8004C55.1774 19.2718 55.4286 19.6797 55.7516 20.0242C56.0745 20.3687 56.4603 20.6407 56.9089 20.8401C57.3575 21.0395 57.8419 21.1392 58.3623 21.1392C58.8826 21.1392 59.376 21.0395 59.8425 20.8401C60.309 20.6407 60.7128 20.3687 61.0537 20.0242C61.3946 19.6797 61.6637 19.2718 61.8611 18.8004C62.0585 18.329 62.1572 17.8123 62.1572 17.2502C62.1572 16.6882 62.0585 16.1714 61.8611 15.7001C61.6817 15.2287 61.4215 14.8207 61.0806 14.4762C60.7576 14.1318 60.3629 13.8689 59.8964 13.6876C59.4478 13.4881 58.9633 13.3884 58.443 13.3884Z" fill="white"/>
<path d="M67.0801 9.03704V5.55595H70.8212V9.03704H67.0801ZM67.0801 24.1852V10.2337H70.8212V24.1852H67.0801Z" fill="white"/>
<path d="M72.3368 24.1852V5.55595H76.1048V24.1852H72.3368Z" fill="white"/>
<path d="M77.6198 24.1852V20.2418H81.4954V24.1852H77.6198Z" fill="white"/>
<path d="M87.4212 12.3821V24.1852H83.4109V5.55595H87.9594L95.3878 17.3862V5.55595H99.398V24.1852H94.8495L87.4212 12.3821Z" fill="white"/>
<path d="M114.84 21.1936C114.158 22.2271 113.279 23.043 112.202 23.6413C111.143 24.2215 109.842 24.5115 108.299 24.5115C107.187 24.5115 106.182 24.3302 105.285 23.9676C104.406 23.5869 103.643 23.0792 102.997 22.4447C102.369 21.792 101.885 21.0214 101.544 20.133C101.203 19.2446 101.033 18.2837 101.033 17.2502C101.033 16.253 101.203 15.3102 101.544 14.4218C101.903 13.5334 102.405 12.7629 103.051 12.1102C103.697 11.4394 104.469 10.9136 105.366 10.5328C106.263 10.1521 107.25 9.9617 108.326 9.9617C109.421 9.9617 110.399 10.143 111.26 10.5056C112.121 10.8682 112.848 11.3668 113.44 12.0014C114.05 12.636 114.517 13.3884 114.84 14.2587C115.163 15.1108 115.324 16.0445 115.324 17.0599C115.324 17.3318 115.315 17.6128 115.297 17.9029C115.279 18.193 115.27 18.3562 115.27 18.3925H104.72C104.917 19.2809 105.33 19.988 105.958 20.5137C106.604 21.0395 107.411 21.3024 108.38 21.3024C109.223 21.3024 109.941 21.1392 110.533 20.8129C111.143 20.4684 111.646 20.0151 112.04 19.4531L114.84 21.1936ZM108.299 13.062C107.42 13.062 106.685 13.2887 106.092 13.7419C105.518 14.1771 105.106 14.7935 104.854 15.5913H111.556C111.359 14.7391 110.955 14.1046 110.345 13.6876C109.735 13.2705 109.053 13.062 108.299 13.062Z" fill="white"/>
<path d="M124.797 10.2337V13.606H121.406V19.2083C121.406 19.8429 121.549 20.2962 121.836 20.5681C122.141 20.822 122.608 20.9489 123.236 20.9489H124.797V24.1852H122.967C121.119 24.1852 119.773 23.7863 118.93 22.9886C118.086 22.1727 117.665 20.9761 117.665 19.3987V13.606H115.673V10.2337H117.665V6.64379H121.406V10.2337H124.797Z" fill="white"/>
<path d="M135.854 16.2168L133.97 24.1852H129.233L125.707 10.2337H129.475L131.736 19.8338L134.077 10.2337H137.845L140.16 19.8882L142.448 10.2337H146.081L142.528 24.1852H137.738L135.854 16.2168Z" fill="white"/>
<path d="M153.457 9.9617C154.516 9.9617 155.494 10.1521 156.391 10.5328C157.306 10.9136 158.096 11.4303 158.76 12.083C159.423 12.7357 159.944 13.5062 160.321 14.3946C160.697 15.283 160.886 16.2349 160.886 17.2502C160.886 18.2655 160.697 19.2174 160.321 20.1058C159.944 20.9761 159.423 21.7376 158.76 22.3903C158.096 23.043 157.306 23.5597 156.391 23.9404C155.494 24.3212 154.516 24.5115 153.457 24.5115C152.399 24.5115 151.412 24.3302 150.497 23.9676C149.6 23.5869 148.819 23.0702 148.155 22.4175C147.491 21.7648 146.971 20.9942 146.594 20.1058C146.235 19.2174 146.056 18.2655 146.056 17.2502C146.056 16.2349 146.244 15.283 146.621 14.3946C146.998 13.5062 147.509 12.7357 148.155 12.083C148.819 11.4303 149.6 10.9136 150.497 10.5328C151.412 10.1521 152.399 9.9617 153.457 9.9617ZM153.457 13.3884C152.937 13.3884 152.444 13.4881 151.977 13.6876C151.529 13.8689 151.134 14.1318 150.793 14.4762C150.47 14.8207 150.21 15.2287 150.012 15.7001C149.833 16.1714 149.743 16.6882 149.743 17.2502C149.743 17.8123 149.833 18.329 150.012 18.8004C150.192 19.2718 150.443 19.6797 150.766 20.0242C151.089 20.3687 151.475 20.6407 151.923 20.8401C152.372 21.0395 152.856 21.1392 153.377 21.1392C153.897 21.1392 154.39 21.0395 154.857 20.8401C155.323 20.6407 155.727 20.3687 156.068 20.0242C156.409 19.6797 156.678 19.2718 156.876 18.8004C157.073 18.329 157.172 17.8123 157.172 17.2502C157.172 16.6882 157.073 16.1714 156.876 15.7001C156.696 15.2287 156.436 14.8207 156.095 14.4762C155.772 14.1318 155.377 13.8689 154.911 13.6876C154.462 13.4881 153.978 13.3884 153.457 13.3884Z" fill="white"/>
<path d="M162.095 24.1852V10.2337H165.836V12.1374C166.302 11.5028 166.867 10.9952 167.531 10.6144C168.213 10.2337 168.985 10.0433 169.846 10.0433V13.8507C168.464 13.8507 167.45 14.2133 166.805 14.9386C166.177 15.6457 165.863 16.6066 165.863 17.8213V24.1852H162.095Z" fill="white"/>
<path d="M179.532 10.2337H183.784L178.482 17.1686L184 24.1852H179.344L174.957 18.4468V24.1852H171.189V5.55595H174.957V16.4887L179.532 10.2337Z" fill="white"/>
</svg>
